# xmcd
#
# Track frame offsets:
#	150
#	14618
#	32781
#	58640
#	76876
#	97413
#	113219
#	141282
#	154536
#	169090
#	185217
#	203768
#
# Disc length: 2789 seconds
#
# Revision: 0
# Processed by: cddbd v1.5.2PL0 Copyright (c) Steve Scherf et al.
# Submitted via: EasyCDDAExtractor 16.0.5.1
#
DISCID=a70ae30c
DTITLE=Neil Diamond - 2904 [CD Orig) - Neil Diamond - Melody Road
DYEAR=2015
DGENRE=Countrierock
TTITLE0=Melody Road
TTITLE1=First Time
TTITLE2=Seongah and Jimmy
TTITLE3=Something Blue
TTITLE4=Nothing But a Heartache
TTITLE5=In Better Days
TTITLE6=(OOO) Do I Wanna Be Yours
TTITLE7=Alone At the Ball
TTITLE8=Sunny Disposition
TTITLE9=Marry Me Now
TTITLE10=The Art of Love
TTITLE11=Melody Road (Reprise)
EXTD=
EXTT0=
EXTT1=
EXTT2=
EXTT3=
EXTT4=
EXTT5=
EXTT6=
EXTT7=
EXTT8=
EXTT9=
EXTT10=
EXTT11=
PLAYORDER=
